<?xml version="1.0" encoding="UTF-8"?><!DOCTYPE svg PUBLIC "-//W3C//DTD SVG 1.1//EN" "http://www.w3.org/Graphics/SVG/1.1/DTD/svg11.dtd"><svg xmlns="http://www.w3.org/2000/svg"      xmlns:xlink="http://www.w3.org/1999/xlink"      width="200" height="200" viewBox="-37.524054253999999 6.9062487692254706 0.35104107100005422 0.2476203850079628" >        <desc>Descrição</desc>    <title>Título</title>        <path d="M -37.173013182999945 6.982209338227946 L -37.204148036999982 7.000577477228504 -37.208544713000052 7.004024120228571 -37.21537869999991 7.011399070228869 -37.22803876499998 7.019679011229165 -37.227792797999967 7.020554126229186 -37.228274843999969 7.022907132229186 -37.226891579000004 7.025348880229338 -37.226739570999953 7.026769664229384 -37.225753621999999 7.02823471422937 -37.224620909999977 7.029553237229486 -37.224997961 7.033667980229588 -37.22390697899997 7.036846982229633 -37.224145219000057 7.038709048229777 -37.226439980999942 7.041215570229866 -37.230573633000013 7.046897872229998 -37.233353269999967 7.04584263522991 -37.23449522399995 7.049569912230105 -37.23917434100003 7.05683544523032 -37.239011384000051 7.056931385230264 -37.237012647999961 7.058101118230411 -37.234652624000006 7.060246114230431 -37.233081394000031 7.060631993230473 -37.231905925000028 7.060236463230524 -37.228270748999989 7.062474500230515 -37.226492751999871 7.065896178230652 -37.223743238000012 7.066962536230683 -37.216855240999955 7.07356974123087 -37.215769074000058 7.075329592230908 -37.215565750999929 7.077583421230962 -37.213684877999917 7.08171370523111 -37.217098178999983 7.08486952623128 -37.217320629 7.085074244231251 -37.244888638999967 7.110566384232122 -37.287473094999932 7.076699122231069 -37.287659725000005 7.076551015230898 -37.287821192999957 7.076422008230878 -37.32152549499996 7.081905772231103 -37.320297188000026 7.08367309223123 -37.319207521000017 7.084433566231176 -37.317196680999906 7.084679519231187 -37.315837444999971 7.08457279223115 -37.314421647999978 7.084844432231158 -37.313819603999995 7.086771298231334 -37.314519607000001 7.088097876231316 -37.315658393999989 7.089120048231337 -37.316306213000033 7.090192166231319 -37.316412813999975 7.091032027231442 -37.315972912999989 7.092100518231476 -37.314341469000006 7.092960332231471 -37.313902094999982 7.093720577231494 -37.314116226999936 7.094689178231519 -37.314982721000042 7.095505754231496 -37.315305784000039 7.096296643231653 -37.315571989000034 7.097570959231575 -37.315515102999946 7.098690857231595 -37.315729702999938 7.099352972231756 -37.316544045999997 7.099865598231716 -37.317467442999927 7.100124099231699 -37.319581690999975 7.10112357323171 -37.321097056000035 7.102860446231802 -37.321146005999999 7.104032656231802 -37.32081801299995 7.104743788231929 -37.320814711000033 7.105761365231928 -37.321138366999904 7.106755502231849 -37.321456939999969 7.10715378423194 -37.322490409999951 7.108083873231976 -37.323242890000039 7.11058205223209 -37.323728807000009 7.111499321232046 -37.324920314000003 7.112344590232084 -37.328827400999984 7.114242390232164 -37.329472575999986 7.115847735232208 -37.329575655999989 7.117732202232254 -37.329895581999992 7.119362788232344 -37.328146011000001 7.122105388232427 -37.32835793299995 7.123277208232395 -37.328682552999986 7.124195024232485 -37.330740975999952 7.126136753232565 -37.331606151999949 7.12715839623263 -37.332580322999995 7.127977142232602 -37.334205776000012 7.129869203232659 -37.336246686000038 7.135570622232862 -37.336452635999933 7.138539891232959 -37.3364554139999 7.138579948232987 -37.336885308000028 7.139905283232956 -37.339055668000015 7.140931438233039 -37.340684782999986 7.141141622233022 -37.341773050999969 7.140890157232995 -37.342639104999947 7.141911929233075 -37.343724896999994 7.142627819233063 -37.34731101399997 7.142538481233046 -37.348940075000023 7.142799028233021 -37.350894630000006 7.143417373233199 -37.351762479999955 7.143928583233134 -37.353065332000021 7.144240357233173 -37.35404562500004 7.143530906233181 -37.356550484999993 7.142164701233028 -37.362957422999948 7.144174009233097 -37.365338295000036 7.146727441233253 -37.366315230999952 7.147545573233174 -37.368162425000023 7.147909214233245 -37.369029386999991 7.148420424233173 -37.370242190999974 7.149570713233317 -37.370869577000015 7.150361122233257 -37.372608364999998 7.150570761233283 -37.375760376000031 7.150633928233269 -37.37901343799998 7.152681829233423 -37.380967518000013 7.153655474233425 -37.38216195399999 7.153862759233348 -37.383901064999996 7.153869154233433 -37.385970248999961 7.153062656233402 -37.387276098000008 7.152100278233448 -37.388150320999955 7.150880594233335 -37.388665526999951 7.144715531233139 -37.389852258999994 7.130520589232731 -37.359868398999978 7.126292155232456 -37.360306288999972 7.1254274912325 -37.361547042000048 7.112500045232068 -37.360569801000018 7.11244723423205 -37.359480478000037 7.112950738232144 -37.358284484000023 7.113252537232157 -37.355457344999962 7.113547555232138 -37.352302440999956 7.114400952232138 -37.350130048999979 7.114088879232163 -37.346972529000027 7.085057233231268 -37.346996873999998 7.084642956231186 -37.348824009999923 7.053243816230243 -37.352408931999975 7.053510680230204 -37.355974010999986 7.042221893229907 -37.369259923999969 7.000118415228535 -37.370746698999973 6.99957654522855 -37.374693095000005 6.999182377228536 -37.385946638999961 6.998763201228492 -37.387808099999972 6.998973963228522 -37.392042057999994 7.000259683228499 -37.397582313000008 7.002829224228648 -37.403110795000025 7.004726973228728 -37.407237220000027 7.005659055228669 -37.410713282999957 7.005822900228722 -37.414409689000003 7.005530307228675 -37.417454544999956 7.004725655228711 -37.419197718000035 7.003356524228579 -37.420574291999984 7.001483260228483 -37.422469976999977 6.999803016228462 -37.42443045400001 6.998382941228378 -37.429214541999983 6.997536125228393 -37.43073459499999 6.997947189228384 -37.433361671000014 6.998047305228411 -37.43366822399998 6.998059406228435 -37.435627175999969 6.997404541228427 -37.436925581000018 6.99725990022845 -37.439214074999924 6.997007099228405 -37.44497048499997 6.997791520228475 -37.44877353000004 6.997701916228429 -37.450297785000039 6.997146948228433 -37.45334699 6.994916175228333 -37.454436872000024 6.99390164522832 -37.457812843999932 6.991722617228241 -37.462377187000023 6.991739280228195 -37.466395215000034 6.992464756228273 -37.468342596999953 6.992152440228189 -37.470853315999946 6.991612324228264 -37.474546376999982 6.99213390122825 -37.484426116999956 6.994966849228348 -37.487355513999951 6.996249124228484 -37.490394575000046 6.997378692228423 -37.492345949000033 6.998912211228472 -37.493539045999988 6.999476438228527 -37.494626512999993 6.999480064228564 -37.49614887500001 6.998976054228514 -37.498973941999985 6.998985201228472 -37.501256790999953 6.998787483228547 -37.506146139000023 6.999159863228535 -37.514293119999984 7.000252864228557 -37.518209571999932 7.000433373228567 -37.517171521000023 6.996572580228424 -37.516452439000034 6.994840581228296 -37.515797382000009 6.993668714228321 -37.515829632000013 6.99141619722829 -37.516556780000052 6.990486360228182 -37.517258239 6.990118838228149 -37.52385753199998 6.987915716228201 -37.524054253999999 6.987607695228029 -37.523991655999971 6.987082369228084 -37.522091951 6.983000559227953 -37.521636030000025 6.981577262227958 -37.521507761999892 6.980031990227914 -37.52199212 6.97277622722762 -37.521729767999965 6.972466714227593 -37.521203386000018 6.972247432227654 -37.517185519000023 6.970938567227542 -37.513431700999938 6.97009397822756 -37.512182150999934 6.969411566227585 -37.510934249999977 6.968355509227514 -37.510146538999997 6.967117606227404 -37.509690894999956 6.965634461227438 -37.509898328999888 6.962453635227334 -37.509376703999983 6.960537233227306 -37.507928730999993 6.959605768227156 -37.507138613999984 6.959418532227204 -37.505226048999923 6.959473545227226 -37.497883051999963 6.958423727227228 -37.493989812999978 6.957429495227125 -37.492418772000022 6.957354266227114 -37.491445462999955 6.957805688227161 -37.489488825999977 6.9609536572273 -37.48761080200002 6.963474185227305 -37.484303684999951 6.968617061227569 -37.483251868999965 6.970015548227551 -37.482501333000037 6.970363999227516 -37.480630224000031 6.970498409227538 -37.476731962999985 6.970448270227564 -37.464479281999871 6.967711344227418 -37.462536207000035 6.967003068227434 -37.459679830000042 6.966284956227526 -37.456483281999972 6.964703932227359 -37.455663538000003 6.963931774227333 -37.454244808999945 6.962945739227372 -37.453574542999995 6.96217166422727 -37.45223511699993 6.959888525227193 -37.452239198999997 6.958416847227191 -37.452551142999965 6.956869491227153 -37.455392775999982 6.95502648822707 -37.45869055699999 6.953213494226986 -37.46003889 6.952657468226988 -37.465265927999944 6.951204471226852 -37.465775650000019 6.950248400226968 -37.464724593000007 6.945931284226731 -37.463849055999951 6.941464562226635 -37.459876617999981 6.933795867226372 -37.459531916999971 6.930605166226336 -37.468259776000032 6.930418191226323 -37.471109351999992 6.93018584422628 -37.472756032999996 6.929840297226292 -37.474330549999976 6.928829339226219 -37.476211234999973 6.925890872226098 -37.478389003999865 6.923302016226032 -37.481244358000041 6.919105550225915 -37.482963191999971 6.915621868225891 -37.483445312999983 6.91464558622576 -37.485007396999912 6.912887582225785 -37.480883089999992 6.914897360225716 -37.474822185999976 6.915509528225741 -37.469587322000002 6.914287953225745 -37.462036777999927 6.9132602452258 -37.458369280999968 6.91363229122576 -37.449156325000004 6.915847906225849 -37.440033016000001 6.916694352225896 -37.435470725999991 6.916363814225903 -37.43442882800003 6.916938863225788 -37.419882288999922 6.924970963226102 -37.416134887999839 6.926605415226064 -37.411119023000047 6.928060887226231 -37.407178391999956 6.932045313226304 -37.406903402999944 6.932214161226241 -37.403317480999981 6.934413976226445 -37.396502376000001 6.936495695226469 -37.386705650999971 6.936462774226499 -37.377674092000007 6.931352795226289 -37.361521479999979 6.928174150226191 -37.358305983000022 6.928056515226224 -37.35424933500002 6.928666983226201 -37.347243745999997 6.927844333226169 -37.341629441999984 6.926455373226084 -37.33499557599999 6.92275965722601 -37.333640459000044 6.922399738226076 -37.327434492000016 6.922303853226048 -37.315758262999992 6.920242943225965 -37.311807501999958 6.919376286225933 -37.305749145999975 6.917074696225839 -37.299486942000001 6.915780361225856 -37.296264172999976 6.915114479225743 -37.285470381000046 6.914823020225782 -37.285333798000025 6.91481928722574 -37.268260526000027 6.913038132225715 -37.25611659100003 6.91365288522578 -37.245728675000016 6.909230676225548 -37.235876138999984 6.910027405225655 -37.227800148999954 6.908996189225597 -37.221524556999938 6.909850867225522 -37.219672332999984 6.90966939422561 -37.214594397000027 6.907009707225456 -37.212554468 6.906387113225456 -37.198292140000049 6.906248769225471 -37.197735946999948 6.906680339225474 -37.196140793000041 6.91235887522565 -37.192518197999973 6.914949736225701 -37.190473962999945 6.917582673225859 -37.189172873000025 6.917930814225798 -37.180560939999971 6.917941800225819 -37.178799279999957 6.918455630225878 -37.177772575000006 6.92049287422595 -37.178135797000039 6.922402842225978 -37.181086155999992 6.926490909226096 -37.188384330999973 6.930210372226355 -37.193372254999943 6.934265486226416 -37.193645701000008 6.935134724226479 -37.193365562999922 6.935914008226476 -37.192714173000027 6.93617217422652 -37.183454541000025 6.936181285226475 -37.181690291999978 6.937258908226468 -37.179091818000003 6.940624916226618 -37.176648303999976 6.942151384226619 -37.17398138600003 6.943174754226646 -37.173329026000054 6.944474032226772 -37.173501562999938 6.947382304226885 -37.175778335000025 6.949798261226938 -37.178285493999994 6.953861204227025 -37.180280713999963 6.960231394227229 -37.180976384999973 6.964722999227341 -37.178147639999956 6.969485636227496 -37.174331091000006 6.973326723227608 Z" fill="blue" stroke="darkturquoise" stroke-width="0.005" />    </svg>
